<svg id="artboard" xmlns="http://www.w3.org/2000/svg" viewBox="0 0 1200.08 121.9"><title>CareerExploreLogo</title><path d="M23.25,91.42A43.77,43.77,0,0,1,6.19,74.82,46.29,46.29,0,0,1,0,51.05,46.29,46.29,0,0,1,6.19,27.28a43.73,43.73,0,0,1,17.12-16.6,50.14,50.14,0,0,1,24.48-6A50.88,50.88,0,0,1,66.55,8.07,38.87,38.87,0,0,1,81.13,18L75,24.09Q64.33,13.29,48.06,13.28a39.61,39.61,0,0,0-19.67,5A36.19,36.19,0,0,0,14.52,31.78a37.55,37.55,0,0,0-5,19.27,37.58,37.58,0,0,0,5,19.28A36.17,36.17,0,0,0,28.39,83.87a39.61,39.61,0,0,0,19.67,4.95q16.41,0,27-10.94L81.13,84A39.34,39.34,0,0,1,66.48,94a50.34,50.34,0,0,1-18.81,3.45A49.64,49.64,0,0,1,23.25,91.42Z"/><path d="M146.51,34.32q7.16,6.7,7.16,19.86V96.63h-8.85V86a21.3,21.3,0,0,1-9.18,8.34,32.12,32.12,0,0,1-14.39,3q-11.48,0-18.24-5.47a17.66,17.66,0,0,1-6.77-14.45,17.5,17.5,0,0,1,6.32-14.07Q108.88,58,122.68,58h21.75V53.79q0-8.86-5-13.48T125,35.68a36.79,36.79,0,0,0-12.5,2.15,31.71,31.71,0,0,0-10.29,5.93l-4.17-6.9A37.09,37.09,0,0,1,110.57,30a48.52,48.52,0,0,1,15.36-2.41Q139.35,27.61,146.51,34.32ZM136.09,86.41a21.47,21.47,0,0,0,8.34-10.35V64.86H122.94q-17.58,0-17.58,12.24a11.2,11.2,0,0,0,4.56,9.44Q114.47,90,122.68,90A24.32,24.32,0,0,0,136.09,86.41Z"/><path d="M200.62,31.13q6.45-3.52,16-3.52v9l-2.22-.14q-10.81,0-16.93,6.65t-6.12,18.62v34.9h-9.25V28.13h8.86V41.54A22.36,22.36,0,0,1,200.62,31.13Z"/><path d="M295.5,65.25H238.19A24.46,24.46,0,0,0,246.4,82.5q7.42,6.59,18.75,6.58a29.55,29.55,0,0,0,11.72-2.28,25.58,25.58,0,0,0,9.25-6.71l5.21,6a29.32,29.32,0,0,1-11.4,8.34,38.54,38.54,0,0,1-15,2.86,38,38,0,0,1-18.69-4.49,32.46,32.46,0,0,1-12.7-12.44,35.4,35.4,0,0,1-4.55-18,36.71,36.71,0,0,1,4.36-18,31.55,31.55,0,0,1,12-12.37,33.48,33.48,0,0,1,17.13-4.43A33.15,33.15,0,0,1,279.48,32a31.45,31.45,0,0,1,11.85,12.3,37.15,37.15,0,0,1,4.3,18ZM245.81,41.87q-6.7,6.32-7.62,16.47h48.58q-.91-10.16-7.62-16.47a25.14,25.14,0,0,0-33.34,0Z"/><path d="M377.41,65.25h-57.3q.78,10.68,8.2,17.25t18.76,6.58a29.55,29.55,0,0,0,11.72-2.28A25.46,25.46,0,0,0,368,80.09l5.21,6a29.29,29.29,0,0,1-11.39,8.34,38.54,38.54,0,0,1-15,2.86,38,38,0,0,1-18.69-4.49,32.4,32.4,0,0,1-12.7-12.44,35.41,35.41,0,0,1-4.56-18,36.71,36.71,0,0,1,4.36-18,31.57,31.57,0,0,1,12-12.37,33.45,33.45,0,0,1,17.12-4.43A33.1,33.1,0,0,1,361.39,32a31.31,31.31,0,0,1,11.85,12.3,37,37,0,0,1,4.3,18ZM327.73,41.87q-6.72,6.32-7.62,16.47h48.57q-.9-10.16-7.61-16.47a25.14,25.14,0,0,0-33.34,0Z"/><path d="M418.24,31.13q6.43-3.52,15.95-3.52v9L432,36.46q-10.82,0-16.93,6.65t-6.13,18.62v34.9h-9.24V28.13h8.85V41.54A22.38,22.38,0,0,1,418.24,31.13Z"/><path d="M519.62,88.3v8.33H455.16V5.47h62.51V13.8H464.79V46.23h47.15v8.21H464.79V88.3Z"/><path d="M585.26,96.63,563.51,68,541.63,96.63H531.21L558.3,61.47,532.51,28.13h10.42L563.51,55l20.57-26.83h10.16L568.46,61.47,595.8,96.63Z"/><path d="M667.17,32a31.17,31.17,0,0,1,12.24,12.31,36.58,36.58,0,0,1,4.43,18.1,36.81,36.81,0,0,1-4.43,18.23,31.32,31.32,0,0,1-12.17,12.31,35.09,35.09,0,0,1-17.52,4.36,32.38,32.38,0,0,1-15-3.45,28.53,28.53,0,0,1-11-10.09V121.9h-9.24V28.13h8.85V41.67a28.5,28.5,0,0,1,11-10.41,32.29,32.29,0,0,1,15.43-3.65A35.15,35.15,0,0,1,667.17,32Zm-5.08,53.79a23.45,23.45,0,0,0,9.18-9.44,28.7,28.7,0,0,0,3.33-13.94,28.32,28.32,0,0,0-3.33-13.87,24,24,0,0,0-9.18-9.44,26.83,26.83,0,0,0-26.11,0,24.13,24.13,0,0,0-9.11,9.44,28.32,28.32,0,0,0-3.33,13.87,28.7,28.7,0,0,0,3.33,13.94A23.6,23.6,0,0,0,636,85.76a27.33,27.33,0,0,0,26.11,0Z"/><path d="M706,0h9.25V96.63H706Z"/><path d="M754.43,92.79a32.78,32.78,0,0,1-12.51-12.44,35.4,35.4,0,0,1-4.55-18,35.46,35.46,0,0,1,4.55-18A32.26,32.26,0,0,1,754.43,32a38.14,38.14,0,0,1,35.68,0,31.88,31.88,0,0,1,12.44,12.37,35.93,35.93,0,0,1,4.49,18,35.88,35.88,0,0,1-4.49,18,32.4,32.4,0,0,1-12.44,12.44,37.69,37.69,0,0,1-35.68,0Zm30.93-7a23.21,23.21,0,0,0,9-9.44,29.23,29.23,0,0,0,3.25-13.94,29.19,29.19,0,0,0-3.25-13.93,23.23,23.23,0,0,0-9-9.45,27.47,27.47,0,0,0-26.18,0,23.72,23.72,0,0,0-9.12,9.45,28.77,28.77,0,0,0-3.32,13.93,28.81,28.81,0,0,0,3.32,13.94,23.69,23.69,0,0,0,9.12,9.44,27.47,27.47,0,0,0,26.18,0Z"/><path d="M847.74,31.13q6.45-3.52,16-3.52v9l-2.21-.14q-10.82,0-16.93,6.65t-6.12,18.62v34.9h-9.25V28.13H838V41.54A22.31,22.31,0,0,1,847.74,31.13Z"/><path d="M942.61,65.25h-57.3a24.49,24.49,0,0,0,8.2,17.25q7.43,6.59,18.76,6.58A29.55,29.55,0,0,0,924,86.8a25.58,25.58,0,0,0,9.25-6.71l5.2,6a29.29,29.29,0,0,1-11.39,8.34,38.54,38.54,0,0,1-15,2.86,38,38,0,0,1-18.69-4.49,32.4,32.4,0,0,1-12.7-12.44,35.41,35.41,0,0,1-4.56-18,36.72,36.72,0,0,1,4.37-18,31.48,31.48,0,0,1,12-12.37,33.45,33.45,0,0,1,17.12-4.43A33.1,33.1,0,0,1,926.59,32a31.31,31.31,0,0,1,11.85,12.3,37,37,0,0,1,4.3,18ZM892.93,41.87q-6.7,6.32-7.62,16.47h48.58q-.92-10.16-7.62-16.47a25.14,25.14,0,0,0-33.34,0Z"/><path d="M1043,5.47V96.63h-7.94l-58.61-74v74h-9.64V5.47h7.95l58.73,74v-74Z"/><path d="M1200.08,5.47l-30.74,91.16h-10.15l-26.7-77.75-26.83,77.75h-10L1064.9,5.47h9.89l26.31,78.4,27.22-78.4h9l26.82,78.79,26.7-78.79Z"/></svg>