<svg width="100%" height="100%" xmlns="http://www.w3.org/2000/svg" xmlns:xlink="http://www.w3.org/1999/xlink">
    <style>
        .square,
        .mini { visibility: hidden; }
        .wide { visibility: visible; }

        @media (min-aspect-ratio: 1/1)
        {
            .wide { visibility: hidden; }
            .square { visibility: visible; }
        }
        
        @media (min-aspect-ratio: 2/1)
        {
            .square { visibility: hidden; }
            .wide { visibility: visible; }
        }
        
    </style>
    
    <symbol id="logo" viewBox="0 0 276 276">
        <path d="M137.59 40.66a97 97 0 1 0 97 97 97.14 97.14 0 0 0-97-97z" fill="#4f6f34"/>
        <path class="cls-2" fill="#243f13" d="M137.5 0v59.48h17.17L137.5 0z"/>
        <path class="cls-3" fill="#fff" d="M137.5 0v59.48h-17.17L137.5 0z"/>
        <path class="cls-2" fill="#243f13" d="M0 137.5h59.48v-17.17L0 137.5z"/>
        <path class="cls-3" fill="#fff" d="M0 137.5h59.48v17.17L0 137.5z"/>
        <path class="cls-2" fill="#243f13" d="M137.5 276v-59.48h-17.17L137.5 276z"/>
        <path class="cls-3" fill="#fff" d="M137.5 276v-59.48h17.17L137.5 276z"/>
        <path class="cls-2" fill="#243f13" d="M276 137.5h-59.48v17.17L276 137.5z"/>
        <path class="cls-3" fill="#fff" d="M276 137.5h-59.48v-17.17L276 137.5z"/>
        <circle class="cls-3" fill="#fff" cx="137.5" cy="137.5" r="85.02"/>
        <path d="M173 152.66h-11l-1.74-16-8.31 16H141l-3.64-30.32h10.09l2 17.28 9-17.28h9.4l1.73 17.54 9.15-17.54h3.77a47.77 47.77 0 1 0 2 8.26zm-44.71 0h-8.4l-8.71-14.12-2.82 14.12h-10l6.07-30.32h8.4l8.71 14.12 2.81-14.12h10z" fill="#093a5d"/>
        <path class="cls-3" fill="#fff" d="M121.55 136.46l-8.71-14.12h-8.4l-6.07 30.32h9.96l2.82-14.12 8.71 14.12h8.4l6.07-30.32h-9.97l-2.81 14.12zM169.69 139.88L168 122.34h-9.4l-9 17.28-1.95-17.28H137.5l3.64 30.32h11l8.31-16 1.74 16h11l11.47-22.06a46.94 46.94 0 0 0-2-8.26h-3.77z"/>
        <path d="M78.13 179.77l-2.92 1.56-7.5-14.06 18.75-10L93.75 171l-2.91 1.56-5.45-10.2-4.87 2.6 4.83 9.04-2.87 1.53-4.83-9.06-5.16 2.76zM92.6 198.93l.93-9.87-9.6 2.36-3.39-2.95 13.06-3 1.18-12.76 3.37 2.93-.84 9.27 9-2.19 3.23 2.8-12.34 2.88-1.2 13.52zM123.63 191.72a7.06 7.06 0 0 1 2.05 3.54 8 8 0 0 1-2.79 7.56 7 7 0 0 1-3.89 1.38 11.68 11.68 0 0 1-4.83-.81l-4.5-1.65-2.12 5.75-3.7-1.36 7.34-19.94 8.2 3a11.65 11.65 0 0 1 4.24 2.53zm-4.39 8.8a4.31 4.31 0 0 0 2.16-5.86 6 6 0 0 0-3.29-2.38l-4.33-1.59-2.92 7.91 4.33 1.6a6.05 6.05 0 0 0 4.05.32zM131.3 192.2l3.95.07-.29 17.9 11.1.18-.05 3.34-15-.24zM155 210.61a10.39 10.39 0 0 1-5.11-2.45 11.3 11.3 0 0 1-3.48-10.64 10.45 10.45 0 0 1 2.68-5 12.87 12.87 0 0 1 11.13-3.64 10.55 10.55 0 0 1 5.11 2.44 10.73 10.73 0 0 1 3.16 4.87 10.88 10.88 0 0 1 .33 5.8 10.41 10.41 0 0 1-2.69 5 12.85 12.85 0 0 1-11.13 3.62zm8.27-5.86a6.91 6.91 0 0 0 1.71-3.37 8.07 8.07 0 0 0-2.39-7.3 6.83 6.83 0 0 0-3.37-1.71 8.12 8.12 0 0 0-7.27 2.38 7 7 0 0 0-1.71 3.36 8 8 0 0 0 2.39 7.3 6.83 6.83 0 0 0 3.37 1.71 7.6 7.6 0 0 0 3.93-.28 7.71 7.71 0 0 0 3.29-2.09zM191 191.44l-7.35-1.85c-.13.13-.33.32-.6.56l-3.62 3.14 4.06 4.68-3 2.58-13.93-16 6.59-5.73a11.92 11.92 0 0 1 4.23-2.47 7.14 7.14 0 0 1 4.09-.09 7.31 7.31 0 0 1 3.47 2.34 7.17 7.17 0 0 1 1.82 3.88 6.9 6.9 0 0 1-.84 4.14l8.27 2.07zm-12.1-11.76a6 6 0 0 0-3.67 1.74l-3.49 3 5.56 6.39 3.48-3a6 6 0 0 0 2.23-3.4 3.85 3.85 0 0 0-1-3.25 3.8 3.8 0 0 0-3.08-1.48zM204.7 165.27l2.9 1.59-7.65 14-18.63-10.2 7.44-13.66 2.9 1.59-5.55 10.14 4.85 2.66 4.92-9 2.85 1.56-4.92 9 5.14 2.82z"/>
        <path d="M88.39 106.73a10.41 10.41 0 0 1-5.56.92 11.4 11.4 0 0 1-9-6.73 10.37 10.37 0 0 1-.68-5.6 12.74 12.74 0 0 1 5.92-8.77 9.67 9.67 0 0 1 4.3-1.34l.39 3.47a7.45 7.45 0 0 0-5.39 3.06 8 8 0 0 0-1.57 3.71 6.91 6.91 0 0 0 .51 3.76 8.16 8.16 0 0 0 6.18 4.61 6.9 6.9 0 0 0 3.74-.58 8 8 0 0 0 3.11-2.56 7.44 7.44 0 0 0 1.38-6.06L95.2 94a9.69 9.69 0 0 1-.08 4.51 12.35 12.35 0 0 1-2.12 4.41 11.93 11.93 0 0 1-4.61 3.81zM110.14 82.38L101 87.82l.72 5.29-3.5 2.09-2.64-23.15 3.34-2L118 83.41l-3.54 2.11zm-2.7-2l-8.2-5.93 1.34 10zM134.28 81.17l-5.2-5.52-.8.15-4.75.69.9 6.13-3.9.57-3.09-21 8.65-1.27a11.74 11.74 0 0 1 4.89.21 7 7 0 0 1 3.49 2.12 7.33 7.33 0 0 1 1.67 3.84 7.23 7.23 0 0 1-.56 4.25 6.93 6.93 0 0 1-2.94 3l5.85 6.2zm-3.85-16.42a6 6 0 0 0-4-.52l-4.57.67 1.23 8.38 4.57-.67a6 6 0 0 0 3.68-1.61 3.86 3.86 0 0 0 .86-3.31 3.76 3.76 0 0 0-1.77-2.94zM157.86 81.2l-.69 3.23-15.59-3.32L146 60.33l15.17 3.23-.69 3.24-11.31-2.41-1.17 5.4 10 2.14-.67 3.18-10-2.14-1.22 5.73zM175.62 91.52l-1.74 2.81L160.33 86l11.18-18.07L184.7 76l-1.7 2.86-9.83-6.09-2.91 4.7 8.73 5.4-1.71 2.76-8.72-5.4-3.09 5zM184.94 107.69l2.25-7.24c-.13-.13-.3-.34-.53-.63L183.72 96l-4.89 3.8-2.42-3.12 16.78-13 5.36 6.91a11.71 11.71 0 0 1 2.24 4.41 7 7 0 0 1-.14 4.08 7.35 7.35 0 0 1-2.52 3.34 7.17 7.17 0 0 1-4 1.6 6.91 6.91 0 0 1-4.09-1.06l-2.52 8.14zm12.4-11.44a6.07 6.07 0 0 0-1.53-3.76L193 88.85 186.29 94l2.83 3.64a6 6 0 0 0 3.27 2.42 4.36 4.36 0 0 0 5-3.85z"/>
    </symbol>

    <symbol id="typography" viewBox="0 0 1200 122">
        <path fill="#000" d="M23 91A44 44 0 0 1 6 75a46 46 0 0 1-6-24 46 46 0 0 1 6-24 44 44 0 0 1 17-16 50 50 0 0 1 25-6 51 51 0 0 1 19 3 39 39 0 0 1 14 10l-6 6Q64 13 48 13a40 40 0 0 0-20 5 36 36 0 0 0-13 14 38 38 0 0 0-5 19 38 38 0 0 0 5 19 36 36 0 0 0 13 14 40 40 0 0 0 20 5q16 0 27-11l6 6a39 39 0 0 1-15 10 50 50 0 0 1-18 3 50 50 0 0 1-25-6zM147 34q7 7 7 20v43h-9V86a21 21 0 0 1-9 8 32 32 0 0 1-15 3q-11 0-18-5a18 18 0 0 1-7-15 18 18 0 0 1 7-14q6-5 20-5h21v-4q0-9-5-14t-14-4a37 37 0 0 0-12 2 32 32 0 0 0-11 6l-4-7a37 37 0 0 1 13-7 49 49 0 0 1 15-2q13 0 21 6zm-11 52a21 21 0 0 0 8-10V65h-21q-18 0-18 12a11 11 0 0 0 5 10q4 3 13 3a24 24 0 0 0 13-4zM201 31q6-3 16-3v9l-3-1q-10 0-17 7t-6 19v35h-9V28h9v14a22 22 0 0 1 10-11zM296 65h-58a24 24 0 0 0 8 18q8 6 19 6a30 30 0 0 0 12-2 26 26 0 0 0 9-7l5 6a29 29 0 0 1-11 8 39 39 0 0 1-15 3 38 38 0 0 1-19-4 32 32 0 0 1-12-13 35 35 0 0 1-5-18 37 37 0 0 1 4-18 32 32 0 0 1 12-12 33 33 0 0 1 17-4 33 33 0 0 1 17 4 31 31 0 0 1 12 12 37 37 0 0 1 5 18zm-50-23q-7 6-8 16h49q-1-10-8-16a25 25 0 0 0-33 0zM377 65h-57q1 11 8 18t19 6a30 30 0 0 0 12-2 25 25 0 0 0 9-7l5 6a29 29 0 0 1-11 8 39 39 0 0 1-15 3 38 38 0 0 1-19-4 32 32 0 0 1-13-13 35 35 0 0 1-4-18 37 37 0 0 1 4-18 32 32 0 0 1 12-12 33 33 0 0 1 17-4 33 33 0 0 1 17 4 31 31 0 0 1 12 12 37 37 0 0 1 5 18zm-49-23q-7 6-8 16h49q-1-10-8-16a25 25 0 0 0-33 0zM418 31q7-3 16-3v9l-2-1q-11 0-17 7t-6 19v35h-9V28h9v14a22 22 0 0 1 9-11zM520 88v9h-65V5h63v9h-53v32h47v8h-47v34zM585 97l-21-29-22 29h-11l27-36-25-33h10l21 27 20-27h10l-26 33 28 36zM667 32a31 31 0 0 1 12 12 37 37 0 0 1 5 18 37 37 0 0 1-5 19 31 31 0 0 1-12 12 35 35 0 0 1-17 4 32 32 0 0 1-15-3 29 29 0 0 1-11-10v38h-10V28h9v14a29 29 0 0 1 11-11 32 32 0 0 1 16-3 35 35 0 0 1 17 4zm-5 54a23 23 0 0 0 9-10 29 29 0 0 0 4-14 28 28 0 0 0-4-13 24 24 0 0 0-9-10 27 27 0 0 0-26 0 24 24 0 0 0-9 10 28 28 0 0 0-3 13 29 29 0 0 0 3 14 24 24 0 0 0 9 10 27 27 0 0 0 26 0zM706 0h9v97h-9zM754 93a33 33 0 0 1-12-13 35 35 0 0 1-5-18 35 35 0 0 1 5-18 32 32 0 0 1 12-12 38 38 0 0 1 36 0 32 32 0 0 1 13 12 36 36 0 0 1 4 18 36 36 0 0 1-4 18 32 32 0 0 1-13 13 38 38 0 0 1-36 0zm31-7a23 23 0 0 0 9-10 29 29 0 0 0 4-14 29 29 0 0 0-4-14 23 23 0 0 0-9-9 27 27 0 0 0-26 0 24 24 0 0 0-9 9 29 29 0 0 0-3 14 29 29 0 0 0 3 14 24 24 0 0 0 9 10 27 27 0 0 0 26 0zM848 31q6-3 16-3v9l-2-1q-11 0-17 7t-7 19v35h-9V28h9v14a22 22 0 0 1 10-11zM943 65h-58a24 24 0 0 0 9 18q7 6 18 6a30 30 0 0 0 12-2 26 26 0 0 0 9-7l5 6a29 29 0 0 1-11 8 39 39 0 0 1-15 3 38 38 0 0 1-19-4 32 32 0 0 1-12-13 35 35 0 0 1-5-18 37 37 0 0 1 4-18 31 31 0 0 1 12-12 33 33 0 0 1 18-4 33 33 0 0 1 17 4 31 31 0 0 1 11 12 37 37 0 0 1 5 18zm-50-23q-7 6-8 16h49q-1-10-8-16a25 25 0 0 0-33 0zM1043 5v92h-8l-59-74v74h-9V5h8l58 74V5zM1200 5l-31 92h-10l-27-78-26 78h-10l-31-92h10l26 79 27-79h9l27 79 27-79z"
        />
    </symbol>

    <symbol id="mini" viewBox="0 0 276 276">
        <path d="M138 41a97 97 0 1 0 97 97 97 97 0 0 0-97-97z" fill="#4f6f34"/>
        <path class="cls-2" fill="#243f13" d="M138 0v60h17L138 0z"/>
        <path class="cls-3" fill="#fff" d="M138 0v60h-17l17-60z"/>
        <path class="cls-2" fill="#243f13" d="M0 138h60v-17L0 138z"/>
        <path class="cls-3" fill="#fff" d="M0 138h60v17L0 138z"/>
        <path class="cls-2" fill="#243f13" d="M138 276v-59h-17l17 59z"/>
        <path class="cls-3" fill="#fff" d="M138 276v-59h17l-17 59z"/>
        <path class="cls-2" fill="#243f13" d="M276 138h-59v17l59-17z"/>
        <path class="cls-3" fill="#fff" d="M276 138h-59v-17l59 17z"/>
        <circle class="cls-3" fill="#fff" cx="138" cy="138" r="85"/>
        <path d="M192 161h-17l-3-25-12 25h-17l-5-46h15l3 26 14-26h14l3 26 13-26h6a72 72 0 1 0 4 23 74 74 0 0 0-1-11zm-68 0h-13l-13-22-4 22H79l9-46h13l13 21 4-21h15z" fill="#093a5d"/>
        <path class="cls-3" fill="#fff" d="M114 136l-13-21H88l-9 46h15l4-22 13 22h13l9-46h-15l-4 21zM187 141l-3-26h-14l-14 26-3-26h-15l5 46h17l13-24 2 24h17l17-34a71 71 0 0 0-3-12h-5z"/>
    </symbol>
    
    <symbol id="wide" viewBox="0 0 1500 276">
        <use xlink:href="#mini" x="0" y="0" width="276" height="276"/>
        <use xlink:href="#typography" x="300" y="84" width="1200" height="122"/>
    </symbol>

    <use class="square" xlink:href="#logo" x="0" y="0" width="100%" height="100%"/>
<!--    <use class="mini" xlink:href="#mini" x="0" y="0" width="100%" height="100%"/>-->
    <use class="wide" xlink:href="#wide" x="0" y="0" width="100%" height="100%"/>
</svg>

